<?xml version="1.0" encoding="UTF-8"?>
<svg version="1.1" xmlns="http://www.w3.org/2000/svg" width="64" height="64">
<path d="M0 0 C0.72703125 0.23847656 1.4540625 0.47695313 2.203125 0.72265625 C3.97223935 1.30460176 5.73665346 1.90080457 7.5 2.5 C7.88218767 4.15614657 8.21395102 5.82457024 8.5 7.5 C7.5 8.5 7.5 8.5 4.4375 8.5625 C3.468125 8.541875 2.49875 8.52125 1.5 8.5 C1.48582031 9.47839844 1.47164062 10.45679688 1.45703125 11.46484375 C1.16270794 19.55475733 0.42476042 25.7943299 -4.5 32.5 C0.14852382 35.51659525 4.74304542 38.20864712 9.8359375 40.41015625 C12.08607063 41.88383499 12.63303289 42.94630975 13.5 45.5 C13.765625 48.8828125 13.765625 48.8828125 13.75 52.625 C13.75773437 54.48511719 13.75773437 54.48511719 13.765625 56.3828125 C13.5 59.5 13.5 59.5 11.5 61.5 C9.45068359 61.75396729 9.45068359 61.75396729 6.8984375 61.75878906 C5.94404785 61.76509338 4.9896582 61.77139771 4.00634766 61.77789307 C2.45633057 61.77182037 2.45633057 61.77182037 0.875 61.765625 C-0.18283691 61.76753845 -1.24067383 61.7694519 -2.33056641 61.77142334 C-4.56998939 61.77278602 -6.80942026 61.76908382 -9.04882812 61.76074219 C-12.48585677 61.75004402 -15.9223627 61.76063488 -19.359375 61.7734375 C-21.53125116 61.77211592 -23.70312699 61.76955356 -25.875 61.765625 C-26.90834473 61.76967346 -27.94168945 61.77372192 -29.00634766 61.77789307 C-29.9607373 61.77158875 -30.91512695 61.76528442 -31.8984375 61.75878906 C-32.74067871 61.75719788 -33.58291992 61.75560669 -34.45068359 61.75396729 C-36.5 61.5 -36.5 61.5 -38.5 59.5 C-38.80078125 56.41796875 -38.80078125 56.41796875 -38.8125 52.6875 C-38.82925781 51.46417969 -38.84601562 50.24085937 -38.86328125 48.98046875 C-38.46245894 45.14033239 -37.9796012 43.44138928 -35.5 40.5 C-33.08820545 39.04843098 -30.85284023 37.84173683 -28.3125 36.6875 C-27.33120117 36.22053711 -27.33120117 36.22053711 -26.33007812 35.74414062 C-24.72613216 34.98314436 -23.11384652 34.23976848 -21.5 33.5 C-21.21202323 30.34807677 -21.21202323 30.34807677 -23.4375 27.75 C-26.88774556 22.12963533 -26.33488855 14.91457999 -26.5 8.5 C-27.82 8.5 -29.14 8.5 -30.5 8.5 C-30.190625 9.03625 -29.88125 9.5725 -29.5625 10.125 C-27.19986975 15.40617349 -27.40224679 20.83031394 -27.5 26.5 C-30.47 26.5 -33.44 26.5 -36.5 26.5 C-36.35973717 24.18715544 -36.21264442 21.87472409 -36.0625 19.5625 C-35.98128906 18.27472656 -35.90007813 16.98695312 -35.81640625 15.66015625 C-35.5 12.5 -35.5 12.5 -34.5 11.5 C-34.26924918 10.15252916 -34.08846937 8.79622435 -33.9375 7.4375 C-33.793125 6.138125 -33.64875 4.83875 -33.5 3.5 C-30.83855352 2.48381134 -28.17223438 1.48708159 -25.5 0.5 C-24.75621094 0.21382813 -24.01242188 -0.07234375 -23.24609375 -0.3671875 C-14.88489497 -3.42084271 -8.36039548 -2.86420956 0 0 Z " fill="#0F0F0C" transform="translate(44.5,2.5)"/>
<path d="M0 0 C1.70635887 1.03194084 3.39294235 2.09702316 5.0625 3.1875 C8.78256105 5.63594018 8.78256105 5.63594018 13.125 5.6875 C14.74358731 4.73745962 16.34880164 3.75979433 17.89453125 2.6953125 C23.35399011 -1 23.35399011 -1 27.8125 -1 C32.20594966 0.37833715 32.20594966 0.37833715 34 3 C34.2172101 5.64996326 34.28351554 8.05076558 34.1875 10.6875 C34.16719727 11.7403418 34.16719727 11.7403418 34.14648438 12.81445312 C34.11120182 14.54329829 34.05739583 16.27174765 34 18 C32.02 18 30.04 18 28 18 C27.505 16.02 27.505 16.02 27 14 C26.67 15.32 26.34 16.64 26 18 C16.1 18 6.2 18 -4 18 C-4 16.35 -4 14.7 -4 13 C-4.66 13 -5.32 13 -6 13 C-6 14.65 -6 16.3 -6 18 C-7.98 18 -9.96 18 -12 18 C-12.66 15.69 -13.32 13.38 -14 11 C-13.67 10.67 -13.34 10.34 -13 10 C-12.9175 8.906875 -12.835 7.81375 -12.75 6.6875 C-12 3 -12 3 -9.875 0.5 C-5.90831525 -1.56957465 -4.29801416 -1.26826647 0 0 Z " fill="#3F6E91" transform="translate(21,44)"/>
<path d="M0 0 C1.32 0 2.64 0 4 0 C5.59112769 3.18225539 5.33732786 5.45805748 5 9 C3.5680644 12.15426373 1.85540724 15.0777336 0 18 C4.64852382 21.01659525 9.24304542 23.70864712 14.3359375 25.91015625 C16.58607063 27.38383499 17.13303289 28.44630975 18 31 C18.265625 34.3828125 18.265625 34.3828125 18.25 38.125 C18.25773437 39.98511719 18.25773437 39.98511719 18.265625 41.8828125 C18 45 18 45 16 47 C13.95068359 47.25396729 13.95068359 47.25396729 11.3984375 47.25878906 C10.44404785 47.26509338 9.4896582 47.27139771 8.50634766 47.27789307 C7.47300293 47.2738446 6.4396582 47.26979614 5.375 47.265625 C4.31716309 47.26753845 3.25932617 47.2694519 2.16943359 47.27142334 C-0.06998939 47.27278602 -2.30942026 47.26908382 -4.54882812 47.26074219 C-7.98585677 47.25004402 -11.4223627 47.26063488 -14.859375 47.2734375 C-17.03125116 47.27211592 -19.20312699 47.26955356 -21.375 47.265625 C-22.40834473 47.26967346 -23.44168945 47.27372192 -24.50634766 47.27789307 C-25.4607373 47.27158875 -26.41512695 47.26528442 -27.3984375 47.25878906 C-28.24067871 47.25719788 -29.08291992 47.25560669 -29.95068359 47.25396729 C-32 47 -32 47 -34 45 C-34.125 42.375 -34.125 42.375 -34 40 C-33.01 40.33 -32.02 40.66 -31 41 C-31 42.32 -31 43.64 -31 45 C-29.02 45 -27.04 45 -25 45 C-25 43.35 -25 41.7 -25 40 C-24.34 40 -23.68 40 -23 40 C-23 41.65 -23 43.3 -23 45 C-13.1 45 -3.2 45 7 45 C7.33 43.35 7.66 41.7 8 40 C8.33 40 8.66 40 9 40 C9 41.65 9 43.3 9 45 C10.98 45 12.96 45 15 45 C14.96697069 42.55883375 14.89985838 40.12681489 14.8125 37.6875 C14.80669922 36.99720703 14.80089844 36.30691406 14.79492188 35.59570312 C14.74609542 33.2983674 14.74609542 33.2983674 14 30 C11.27740482 27.74158498 9.84500649 27.01965131 6.3125 26.9375 C3.03328816 27.98932266 0.86399377 29.31538413 -2 31.1875 C-6.5949793 34.04050207 -6.5949793 34.04050207 -10.125 33.6875 C-11.74358731 32.73745962 -13.34880164 31.75979433 -14.89453125 30.6953125 C-19.42315547 27.58458049 -19.42315547 27.58458049 -24.875 27.0625 C-28.06702304 27.75095649 -28.06702304 27.75095649 -30 30 C-30.40047444 32.32275177 -30.7397104 34.65739357 -31 37 C-32.485 37.495 -32.485 37.495 -34 38 C-34.29842544 32.92676745 -34.1367504 30.04741988 -31 26 C-28.58820545 24.54843098 -26.35284023 23.34173683 -23.8125 22.1875 C-23.15830078 21.87619141 -22.50410156 21.56488281 -21.83007812 21.24414062 C-20.22613216 20.48314436 -18.61384652 19.73976848 -17 19 C-17 15.7542235 -17.39400196 15.13606994 -19.125 12.5625 C-20.2421875 10.71875 -20.2421875 10.71875 -21 9 C-20.25 6.5625 -20.25 6.5625 -19 5 C-19 5.99 -19 6.98 -19 8 C-18.34 8 -17.68 8 -17 8 C-16.319375 9.7015625 -16.319375 9.7015625 -15.625 11.4375 C-14.42904194 15.04721692 -14.42904194 15.04721692 -12 16 C-6.80172878 16.52739387 -6.80172878 16.52739387 -2.125 14.8125 C-0.76860001 12.6271889 0.1484919 10.42352305 1 8 C1.66 8 2.32 8 3 8 C3 7.01 3 6.02 3 5 C1.68 4.34 0.36 3.68 -1 3 C-0.67 2.01 -0.34 1.02 0 0 Z " fill="#0B0D0E" transform="translate(40,17)"/>
<path d="M0 0 C4.62 0 9.24 0 14 0 C14.66 1.32 15.32 2.64 16 4 C16.66 4.33 17.32 4.66 18 5 C18 5.99 18 6.98 18 8 C17.34 8 16.68 8 16 8 C15.9175 8.7425 15.835 9.485 15.75 10.25 C14.80632018 13.71015935 13.955699 14.95374685 11 17 C8.22091259 17.56494795 5.77908741 17.56494795 3 17 C0.044301 14.95374685 -0.80632018 13.71015935 -1.75 10.25 C-1.8325 9.5075 -1.915 8.765 -2 8 C-2.66 8 -3.32 8 -4 8 C-4 7.01 -4 6.02 -4 5 C-3.01 4.34 -2.02 3.68 -1 3 C-0.67 2.01 -0.34 1.02 0 0 Z " fill="#FBDACB" transform="translate(25,17)"/>
<path d="M0 0 C0 2 0 4 0 6 C1.05960938 6.53109375 2.11921875 7.0621875 3.2109375 7.609375 C4.59927308 8.32230408 5.9872768 9.03587967 7.375 9.75 C8.07367188 10.09804688 8.77234375 10.44609375 9.4921875 10.8046875 C14.53837931 13.42482555 14.53837931 13.42482555 16.4609375 15.8203125 C17.23677682 18.95740193 17.26347863 21.89686887 17.25 25.125 C17.25773437 26.98511719 17.25773437 26.98511719 17.265625 28.8828125 C17 32 17 32 15 34 C12.95068359 34.25396729 12.95068359 34.25396729 10.3984375 34.25878906 C9.44404785 34.26509338 8.4896582 34.27139771 7.50634766 34.27789307 C6.47300293 34.2738446 5.4396582 34.26979614 4.375 34.265625 C3.31716309 34.26753845 2.25932617 34.2694519 1.16943359 34.27142334 C-1.06998939 34.27278602 -3.30942026 34.26908382 -5.54882812 34.26074219 C-8.98585677 34.25004402 -12.4223627 34.26063488 -15.859375 34.2734375 C-18.03125116 34.27211592 -20.20312699 34.26955356 -22.375 34.265625 C-23.40834473 34.26967346 -24.44168945 34.27372192 -25.50634766 34.27789307 C-26.4607373 34.27158875 -27.41512695 34.26528442 -28.3984375 34.25878906 C-29.24067871 34.25719788 -30.08291992 34.25560669 -30.95068359 34.25396729 C-33 34 -33 34 -35 32 C-35.125 29.375 -35.125 29.375 -35 27 C-34.01 27.33 -33.02 27.66 -32 28 C-32 29.32 -32 30.64 -32 32 C-30.02 32 -28.04 32 -26 32 C-26 30.35 -26 28.7 -26 27 C-25.34 27 -24.68 27 -24 27 C-24 28.65 -24 30.3 -24 32 C-14.1 32 -4.2 32 6 32 C6.33 30.35 6.66 28.7 7 27 C7.33 27 7.66 27 8 27 C8 28.65 8 30.3 8 32 C9.98 32 11.96 32 14 32 C13.96697069 29.55883375 13.89985838 27.12681489 13.8125 24.6875 C13.80669922 23.99720703 13.80089844 23.30691406 13.79492188 22.59570312 C13.74609542 20.2983674 13.74609542 20.2983674 13 17 C9.381818 13.96072712 6.64939488 13.67562361 2 14 C2 13.01 2 12.02 2 11 C-0.44496043 9.28288757 -0.44496043 9.28288757 -3 8 C-3.33 9.65 -3.66 11.3 -4 13 C-6.64 12.67 -9.28 12.34 -12 12 C-12.33 13.32 -12.66 14.64 -13 16 C-13.33 14.35 -13.66 12.7 -14 11 C-11.03 11 -8.06 11 -5 11 C-4.9175 9.9275 -4.835 8.855 -4.75 7.75 C-3.94523098 3.7261549 -3.12270126 2.51830747 0 0 Z " fill="#040608" transform="translate(41,30)"/>
<path d="M0 0 C1.14339844 0.36222656 2.28679688 0.72445313 3.46484375 1.09765625 C4.32207031 1.37480469 5.17929687 1.65195313 6.0625 1.9375 C6.0625 2.5975 6.0625 3.2575 6.0625 3.9375 C3.4225 3.9375 0.7825 3.9375 -1.9375 3.9375 C-1.9375 4.5975 -1.9375 5.2575 -1.9375 5.9375 C-1.2775 5.9375 -0.6175 5.9375 0.0625 5.9375 C0.0625 7.2575 0.0625 8.5775 0.0625 9.9375 C-7.8575 9.9375 -15.7775 9.9375 -23.9375 9.9375 C-23.9375 8.6175 -23.9375 7.2975 -23.9375 5.9375 C-20.22320102 4.8213344 -16.54588492 4.6250805 -12.6875 4.375 C-9.34625 4.1584375 -9.34625 4.1584375 -5.9375 3.9375 C-13.8575 3.9375 -21.7775 3.9375 -29.9375 3.9375 C-29.9375 3.2775 -29.9375 2.6175 -29.9375 1.9375 C-27.42180992 1.06470956 -24.90185594 0.21431691 -22.375 -0.625 C-21.67052734 -0.87185547 -20.96605469 -1.11871094 -20.24023438 -1.37304688 C-12.89959363 -3.77482334 -7.27228644 -2.32413278 0 0 Z " fill="#37607F" transform="translate(43.9375,5.0625)"/>
<path d="M0 0 C4.56899249 1.26916458 4.56899249 1.26916458 6.375 3.9375 C6.5922101 6.58746326 6.65851554 8.98826558 6.5625 11.625 C6.54896484 12.32689453 6.53542969 13.02878906 6.52148438 13.75195312 C6.48620182 15.48079829 6.43239583 17.20924765 6.375 18.9375 C4.395 18.9375 2.415 18.9375 0.375 18.9375 C0.15457031 17.56464844 0.15457031 17.56464844 -0.0703125 16.1640625 C-0.40675781 14.38128906 -0.40675781 14.38128906 -0.75 12.5625 C-0.95882812 11.37914062 -1.16765625 10.19578125 -1.3828125 8.9765625 C-2.34253428 5.63547341 -2.34253428 5.63547341 -5.7421875 4.5234375 C-6.69351563 4.33007812 -7.64484375 4.13671875 -8.625 3.9375 C-5.60841292 0.92091292 -4.35486256 -0.07508384 0 0 Z " fill="#355C7B" transform="translate(48.625,43.0625)"/>
<path d="M0 0 C0.72703125 0.23847656 1.4540625 0.47695313 2.203125 0.72265625 C3.97223935 1.30460176 5.73665346 1.90080457 7.5 2.5 C7.88218767 4.15614657 8.21395102 5.82457024 8.5 7.5 C7.5 8.5 7.5 8.5 4.4375 8.5625 C3.468125 8.541875 2.49875 8.52125 1.5 8.5 C1.83 7.84 2.16 7.18 2.5 6.5 C3.49 6.5 4.48 6.5 5.5 6.5 C5.5 5.84 5.5 5.18 5.5 4.5 C4.0459375 4.3453125 4.0459375 4.3453125 2.5625 4.1875 C-0.46948797 3.77793711 -3.08130721 2.9609483 -5.9375 1.875 C-13.01071907 -0.56651724 -18.65234629 1.32232283 -25.421875 3.9765625 C-27.81757971 4.57999188 -29.18584349 4.28180963 -31.5 3.5 C-20.16971926 -1.68675074 -12.04015668 -4.12486849 0 0 Z " fill="#020304" transform="translate(44.5,2.5)"/>
<path d="M0 0 C1.32 0 2.64 0 4 0 C5.79009505 3.58019011 5.46638897 7.56196733 4.25 11.3125 C2.74357132 13.34617872 1.32758311 14.06896676 -1 15 C-0.34 12.69 0.32 10.38 1 8 C1.66 8 2.32 8 3 8 C3 7.01 3 6.02 3 5 C1.68 4.34 0.36 3.68 -1 3 C-0.67 2.01 -0.34 1.02 0 0 Z M-2 17 C-2.66 19.31 -3.32 21.62 -4 24 C-6.64 24 -9.28 24 -12 24 C-12.125 21.625 -12.125 21.625 -12 19 C-9.20652751 16.20652751 -5.65536205 15.17231897 -2 17 Z " fill="#28221F" transform="translate(40,17)"/>
<path d="M0 0 C0.99 0 1.98 0 3 0 C3.28875 0.639375 3.5775 1.27875 3.875 1.9375 C4.82823451 4.15206079 4.82823451 4.15206079 7 5 C7 5.99 7 6.98 7 8 C6.34 8 5.68 8 5 8 C4.9175 8.7425 4.835 9.485 4.75 10.25 C3.8603054 13.51221354 2.51496251 14.80954878 0 17 C-0.99 16.67 -1.98 16.34 -3 16 C-2.34 15.34 -1.68 14.68 -1 14 C-0.69940057 11.63490639 -0.50484988 9.25558119 -0.375 6.875 C-0.30023438 5.59367187 -0.22546875 4.31234375 -0.1484375 2.9921875 C-0.09945312 2.00476563 -0.05046875 1.01734375 0 0 Z " fill="#F6C4B8" transform="translate(36,17)"/>
<path d="M0 0 C0.99 0.33 1.98 0.66 3 1 C3 2.32 3 3.64 3 5 C4.98 5 6.96 5 9 5 C9 3.35 9 1.7 9 0 C9.66 0 10.32 0 11 0 C11 1.65 11 3.3 11 5 C20.9 5 30.8 5 41 5 C41 5.33 41 5.66 41 6 C35.48277042 6.19208189 29.96533332 6.37083263 24.44726562 6.53710938 C22.56921744 6.5955953 20.69128003 6.65775641 18.81347656 6.72363281 C16.11804368 6.81756025 13.42249184 6.89836718 10.7265625 6.9765625 C9.88380768 7.00875885 9.04105286 7.0409552 8.17276001 7.0741272 C6.11571159 7.12728029 4.05643769 7.073058 2 7 C0 5 0 5 -0.125 2.375 C-0.08375 1.59125 -0.0425 0.8075 0 0 Z " fill="#070C10" transform="translate(6,57)"/>
<path d="M0 0 C2.475 0.99 2.475 0.99 5 2 C5 2.99 5 3.98 5 5 C3.56705502 5.84114171 2.12845595 6.67265687 0.6875 7.5 C-0.11300781 7.9640625 -0.91351563 8.428125 -1.73828125 8.90625 C-4 10 -4 10 -7 10 C-7.66 8.02 -8.32 6.04 -9 4 C-6.36 4 -3.72 4 -1 4 C-0.67 2.68 -0.34 1.36 0 0 Z " fill="#25292D" transform="translate(38,38)"/>
<path d="M0 0 C1.63001953 0.01353516 1.63001953 0.01353516 3.29296875 0.02734375 C4.12441406 0.03894531 4.95585938 0.05054688 5.8125 0.0625 C5.8125 1.3825 5.8125 2.7025 5.8125 4.0625 C0.8625 4.0625 -4.0875 4.0625 -9.1875 4.0625 C-9.1875 3.0725 -9.1875 2.0825 -9.1875 1.0625 C-5.90230525 -0.03256492 -3.45086585 -0.03710608 0 0 Z " fill="#487DA6" transform="translate(30.1875,9.9375)"/>
<path d="M0 0 C2.64 0.33 5.28 0.66 8 1 C8 2.32 8 3.64 8 5 C0.08 5 -7.84 5 -16 5 C-15.67 3.68 -15.34 2.36 -15 1 C-15 1.99 -15 2.98 -15 4 C-10.05 4 -5.1 4 0 4 C0 2.68 0 1.36 0 0 Z " fill="#3D6A8C" transform="translate(36,10)"/>
<path d="M0 0 C1.65 0 3.3 0 5 0 C4.34 3.3 3.68 6.6 3 10 C2.67 9.34 2.34 8.68 2 8 C0.68 8 -0.64 8 -2 8 C-2.33 8.66 -2.66 9.32 -3 10 C-3 9.34 -3 8.68 -3 8 C-7.62 8 -12.24 8 -17 8 C-17 7.67 -17 7.34 -17 7 C-10.73 6.67 -4.46 6.34 2 6 C2 4.68 2 3.36 2 2 C1.34 2 0.68 2 0 2 C0 1.34 0 0.68 0 0 Z " fill="#161312" transform="translate(42,9)"/>
<path d="M0 0 C0 0.66 0 1.32 0 2 C-0.969375 2.556875 -1.93875 3.11375 -2.9375 3.6875 C-6.36684065 5.76388749 -6.36684065 5.76388749 -6.875 9.75 C-6.91625 10.8225 -6.9575 11.895 -7 13 C-7.99 13.33 -8.98 13.66 -10 14 C-10.29254918 9.02666392 -10.16504232 5.9563029 -7 2 C-4.35582586 0.26476072 -3.21534057 0 0 0 Z " fill="#060B0F" transform="translate(16,41)"/>
<path d="M0 0 C2.64 0 5.28 0 8 0 C8 1.65 8 3.3 8 5 C5.36 5 2.72 5 0 5 C0 3.35 0 1.7 0 0 Z " fill="#EFCFC1" transform="translate(28,36)"/>
<path d="M0 0 C2.475 0.99 2.475 0.99 5 2 C5 2.99 5 3.98 5 5 C2.625 6.75 2.625 6.75 0 8 C-0.66 7.67 -1.32 7.34 -2 7 C-1.34 4.69 -0.68 2.38 0 0 Z " fill="#43749B" transform="translate(38,38)"/>
<path d="M0 0 C0.66 2.64 1.32 5.28 2 8 C-1.37503669 6.8141763 -3.64722731 5.72426311 -6 3 C-2.25 0 -2.25 0 0 0 Z " fill="#43749B" transform="translate(26,38)"/>
<path d="M0 0 C1.32 0 2.64 0 4 0 C4.33 2.31 4.66 4.62 5 7 C4.01 7.495 4.01 7.495 3 8 C3 7.01 3 6.02 3 5 C1.68 4.34 0.36 3.68 -1 3 C-0.67 2.01 -0.34 1.02 0 0 Z M1 8 C1.99 8.495 1.99 8.495 3 9 C2.01 9.495 2.01 9.495 1 10 C1 9.34 1 8.68 1 8 Z " fill="#372C1C" transform="translate(40,17)"/>
<path d="M0 0 C0.99 0 1.98 0 3 0 C3.33 2.31 3.66 4.62 4 7 C2.68 7 1.36 7 0 7 C0 4.69 0 2.38 0 0 Z " fill="#C7D6DE" transform="translate(11,20)"/>
<path d="M0 0 C0 0.66 0 1.32 0 2 C-2.31 3.32 -4.62 4.64 -7 6 C-7 4.68 -7 3.36 -7 2 C-4.35261084 0.5393715 -3.10551666 0 0 0 Z " fill="#010203" transform="translate(16,41)"/>
<path d="M0 0 C2.22189824 2.22189824 2.92598892 4.08482708 4 7 C2.02 6.34 0.04 5.68 -2 5 C-2 4.01 -2 3.02 -2 2 C-1.34 2 -0.68 2 0 2 C0 1.34 0 0.68 0 0 Z " fill="#10161A" transform="translate(29,44)"/>
<path d="M0 0 C1.98 0 3.96 0 6 0 C5.34 1.65 4.68 3.3 4 5 C3.34 5 2.68 5 2 5 C1.34 3.35 0.68 1.7 0 0 Z " fill="#E0E7EA" transform="translate(29,43)"/>
</svg>
