<svg height="400" width="400" xmlns="http://www.w3.org/2000/svg" viewBox="0 0 32 32" xml:space="preserve">
  <path d="M32 16a16 16 0 0 1-16 16A16 16 0 0 1 0 16a16 16 0 0 1 32 0" style="fill:#77b3d4"/>
  <g style="opacity:.2">
    <path d="M24 16c0-4.4-3.6-8-8-8-3.75 0-6.9 2.6-7.75 6.05C5.85 14.45 4 16.5 4 19c0 2.75 2.25 5 5 5h15c2.2 0 4-1.8 4-4s-1.8-4-4-4" style="fill:#231f20"/>
  </g>
  <path d="M24 15c0-4.4-3.6-8-8-8-3.75 0-6.9 2.6-7.75 6.05C5.85 13.45 4 15.5 4 18c0 2.75 2.25 5 5 5h15c2.2 0 4-1.8 4-4s-1.8-4-4-4" style="fill:#fff"/>
  <text x="23%" y="21" fill="#77b3d4" font-size="10">409</text>
  <g/>
</svg>
