<?xml version="1.0" encoding="UTF-8"?>
<svg version="1.1" xmlns="http://www.w3.org/2000/svg" width="50" height="50">
<path d="M0 0 C2.625 0.375 2.625 0.375 5 1 C5.33 1.99 5.66 2.98 6 4 C8.91652174 4.16681109 8.91652174 4.16681109 12 4 C12.66 3.34 13.32 2.68 14 2 C18.23963281 1.68595313 21.36534398 1.67382015 25 4 C25.17172798 9.06597533 25.01021856 12.30949002 23 17 C23.495 18.485 23.495 18.485 24 20 C24.67129023 26.19567868 24.17027605 30.82426615 20.97265625 36.2109375 C19.14754556 39.56796841 19 42.15771559 19 46 C17.68 46 16.36 46 15 46 C15 45.34 15 44.68 15 44 C13.88625 44.495 12.7725 44.99 11.625 45.5 C3.59499075 48.47933205 -3.33195312 47.40802083 -11 44 C-11 44.66 -11 45.32 -11 46 C-12.32 46 -13.64 46 -15 46 C-14.896875 45.21625 -14.79375 44.4325 -14.6875 43.625 C-15.00706923 39.91799696 -15.7243282 38.42119979 -17.5 35.25 C-20.93039737 28.79735452 -20.92033557 23.33621644 -19 16.375 C-18.67 15.59125 -18.34 14.8075 -18 14 C-18.99 13.67 -19.98 13.34 -21 13 C-21.28571429 5.57142857 -21.28571429 5.57142857 -19 2 C-11.25 1.875 -11.25 1.875 -9 3 C-8.67 3.66 -8.34 4.32 -8 5 C-3.67628107 2.97366931 -3.67628107 2.97366931 0 0 Z M21 13 C22 15 22 15 22 15 Z " fill="#EEE9ED" transform="translate(23,0)"/>
<path d="M0 0 C2.625 0.375 2.625 0.375 5 1 C5.33 1.99 5.66 2.98 6 4 C8.91652174 4.16681109 8.91652174 4.16681109 12 4 C12.66 3.34 13.32 2.68 14 2 C18.23963281 1.68595313 21.36534398 1.67382015 25 4 C25.17172798 9.06597533 25.01021856 12.30949002 23 17 C23.495 18.485 23.495 18.485 24 20 C24.67129023 26.19567868 24.17027605 30.82426615 20.97265625 36.2109375 C19.14754556 39.56796841 19 42.15771559 19 46 C17.68 46 16.36 46 15 46 C15 45.34 15 44.68 15 44 C13.88625 44.495 12.7725 44.99 11.625 45.5 C3.59499075 48.47933205 -3.33195312 47.40802083 -11 44 C-11 44.66 -11 45.32 -11 46 C-12.32 46 -13.64 46 -15 46 C-14.896875 45.21625 -14.79375 44.4325 -14.6875 43.625 C-15.00706923 39.91799696 -15.7243282 38.42119979 -17.5 35.25 C-20.93039737 28.79735452 -20.92033557 23.33621644 -19 16.375 C-18.67 15.59125 -18.34 14.8075 -18 14 C-18.99 13.67 -19.98 13.34 -21 13 C-21.28571429 5.57142857 -21.28571429 5.57142857 -19 2 C-11.25 1.875 -11.25 1.875 -9 3 C-8.67 3.66 -8.34 4.32 -8 5 C-3.67628107 2.97366931 -3.67628107 2.97366931 0 0 Z M-14.89453125 16.5859375 C-17.04286923 21.27736107 -16.82002377 25.98795815 -16 31 C-13.52504043 36.2354914 -9.21541538 40.39229231 -4 43 C1.99772167 43.72895386 7.41722421 44.04339377 12.5 40.4375 C16.66994558 36.71061114 19.50572559 33.19218891 20.375 27.578125 C20.65372475 21.8294271 19.9179627 17.34038456 16 13 C11.73209028 9.0797815 7.75086658 6.6347563 1.875 6.375 C-5.6618173 6.91167739 -10.60379019 10.44316076 -14.89453125 16.5859375 Z M21 13 C22 15 22 15 22 15 Z " fill="#D32020" transform="translate(23,0)"/>
<path d="M0 0 C3.26023324 0.22484367 4.93132641 0.5260489 7.625 2.25 C7.79672798 7.31597533 7.63521856 10.55949002 5.625 15.25 C5.955 16.24 6.285 17.23 6.625 18.25 C7.35728433 25.00862425 6.71959268 30.66272973 2.625 36.25 C1.635 36.91 0.645 37.57 -0.375 38.25 C-0.62570469 32.73449677 -0.62570469 32.73449677 0.609375 30.34765625 C2.47375012 26.49700456 2.15694018 22.42220554 1.625 18.25 C0.12891464 14.21867639 -1.7492614 11.66715907 -5.375 9.25 C-5.375 8.59 -5.375 7.93 -5.375 7.25 C-4.715 7.25 -4.055 7.25 -3.375 7.25 C-3.375 6.26 -3.375 5.27 -3.375 4.25 C-4.035 3.59 -4.695 2.93 -5.375 2.25 C-3.375 0.25 -3.375 0.25 0 0 Z M3.625 11.25 C4.625 13.25 4.625 13.25 4.625 13.25 Z " fill="#E73134" transform="translate(40.375,1.75)"/>
<path d="M0 0 C2.625 0.375 2.625 0.375 5 1 C5.33 1.99 5.66 2.98 6 4 C8.97 4.495 8.97 4.495 12 5 C8.61036719 6.07338372 5.77648533 5.9204673 2.25 5.6875 C-3.29224936 5.64018812 -6.24291915 6.63483535 -10.3828125 10.28515625 C-13.41979151 13.50552772 -15.48515535 16.71288838 -17.125 20.8125 C-18 23 -18 23 -20 24 C-19.54177532 20.53058454 -19.10868317 17.32604951 -18 14 C-18.99 13.67 -19.98 13.34 -21 13 C-21.28571429 5.57142857 -21.28571429 5.57142857 -19 2 C-11.25 1.875 -11.25 1.875 -9 3 C-8.67 3.66 -8.34 4.32 -8 5 C-3.67628107 2.97366931 -3.67628107 2.97366931 0 0 Z " fill="#F96558" transform="translate(23,0)"/>
<path d="M0 0 C1.04542969 0.02578125 2.09085938 0.0515625 3.16796875 0.078125 C6.19000964 0.25757142 9.10509273 0.59279838 12.0625 1.25 C12.0625 2.24 12.0625 3.23 12.0625 4.25 C10.25 4.875 10.25 4.875 8.0625 5.25 C7.0725 4.59 6.0825 3.93 5.0625 3.25 C-0.42517009 2.42493072 -5.66216066 2.63085839 -10.28735352 5.89868164 C-13.80620637 8.78029882 -16.55861753 12.0254814 -17.33764648 16.59936523 C-17.42779032 19.14661534 -17.37582312 21.64200155 -17.25 24.1875 C-17.22744141 25.06212891 -17.20488281 25.93675781 -17.18164062 26.83789062 C-17.12322203 28.97601121 -17.03355816 31.11323956 -16.9375 33.25 C-20.50186999 29.86140716 -21.79846593 27.02268445 -22.1875 22.0625 C-21.9375 19.25 -21.9375 19.25 -19.9375 17.25 C-19.525 16.198125 -19.1125 15.14625 -18.6875 14.0625 C-15.30238002 5.87324509 -9.1842523 -0.23640289 0 0 Z " fill="#ED3730" transform="translate(24.9375,4.75)"/>
<path d="M0 0 C3.26023324 0.22484367 4.93132641 0.5260489 7.625 2.25 C7.99423077 9.75769231 7.99423077 9.75769231 6.125 12.25 C5.63 12.58 5.135 12.91 4.625 13.25 C2.625 10.25 2.625 10.25 2.625 7.25 C1.305 7.58 -0.015 7.91 -1.375 8.25 C-1.66375 7.63125 -1.9525 7.0125 -2.25 6.375 C-3.31220042 4.11674235 -3.31220042 4.11674235 -5.375 2.25 C-3.375 0.25 -3.375 0.25 0 0 Z " fill="#767E91" transform="translate(40.375,1.75)"/>
<path d="M0 0 C0.66 0 1.32 0 2 0 C0.85265046 2.81622161 -0.04810241 4.03727937 -2.5 5.9375 C-6.36652942 10.67399854 -6.41586273 16.04528719 -7 22 C-7.66 22 -8.32 22 -9 22 C-8.979375 21.33613281 -8.95875 20.67226563 -8.9375 19.98828125 C-9.00417739 17.13365551 -9.18888767 14.74433343 -10 12 C-11.98501264 10.16606655 -13.85368344 9.09982092 -16.28515625 7.9375 C-16.85105469 7.628125 -17.41695312 7.31875 -18 7 C-18 6.34 -18 5.68 -18 5 C-17.29875 5.144375 -16.5975 5.28875 -15.875 5.4375 C-14.451875 5.7159375 -14.451875 5.7159375 -13 6 C-12.05125 6.33 -11.1025 6.66 -10.125 7 C-7.00768159 7.325673 -7.00768159 7.325673 -5.1328125 5.50390625 C-3.89202149 4.22450141 -2.68458239 2.91176036 -1.515625 1.56640625 C-1.01546875 1.04949219 -0.5153125 0.53257813 0 0 Z " fill="#865155" transform="translate(33,15)"/>
<path d="M0 0 C7.75 -0.125 7.75 -0.125 10 1 C8.72553313 4.8234006 7.43243582 5.04975237 4 7 C2.32963607 8.32869858 0.66215268 9.66104368 -1 11 C-1.33 11 -1.66 11 -2 11 C-2.28571429 3.57142857 -2.28571429 3.57142857 0 0 Z " fill="#BEBFC5" transform="translate(4,2)"/>
<path d="M0 0 C1.67542976 0.28604898 3.34385343 0.61781233 5 1 C5.33 1.99 5.66 2.98 6 4 C8.97 4.495 8.97 4.495 12 5 C7.66397854 6.33096102 3.46397147 6.02834835 -1.02734375 5.9375 C-3.82157081 5.99624853 -6.28638812 6.36032722 -9 7 C-6.62997587 4.38049964 -4.04546021 2.76316117 -1 1 C-0.67 0.67 -0.34 0.34 0 0 Z " fill="#F89993" transform="translate(23,0)"/>
<path d="M0 0 C1.7824918 3.33311475 2.48792856 6.24480943 3 10 C1.68 10 0.36 10 -1 10 C-1.33 9.01 -1.66 8.02 -2 7 C-4.21081851 6.89459074 -4.21081851 6.89459074 -7 8 C-8.56118428 8.06740865 -10.1250252 8.08514456 -11.6875 8.0625 C-12.89986328 8.04896484 -12.89986328 8.04896484 -14.13671875 8.03515625 C-15.05904297 8.01775391 -15.05904297 8.01775391 -16 8 C-16 7.67 -16 7.34 -16 7 C-14.845 6.95875 -13.69 6.9175 -12.5 6.875 C-7.2273174 6.2629922 -3.90655317 3.39745449 0 0 Z " fill="#F64B53" transform="translate(39,36)"/>
<path d="M0 0 C0.33 0 0.66 0 1 0 C1.36428777 1.9147688 1.71605306 3.83192293 2.0625 5.75 C2.25972656 6.81734375 2.45695313 7.8846875 2.66015625 8.984375 C2.97156937 11.74771905 2.8991416 13.40946617 2 16 C-0.6635577 11.31499227 -2.79397408 7.55781856 -2 2 C-1.34 1.34 -0.68 0.68 0 0 Z " fill="#EF221F" transform="translate(5,22)"/>
<path d="M0 0 C2 1.6875 2 1.6875 4 4 C4.1875 6.625 4.1875 6.625 4 9 C4.33 9.66 4.66 10.32 5 11 C4.67 11.66 4.34 12.32 4 13 C2.68 13 1.36 13 0 13 C-0.19397476 11.02145742 -0.38001321 9.0421352 -0.5625 7.0625 C-0.66691406 5.96035156 -0.77132813 4.85820313 -0.87890625 3.72265625 C-0.91886719 2.82417969 -0.95882813 1.92570312 -1 1 C-0.67 0.67 -0.34 0.34 0 0 Z " fill="#AC4244" transform="translate(8,33)"/>
<path d="M0 0 C0.99 0.66 1.98 1.32 3 2 C3.99 2 4.98 2 6 2 C6.80967438 4.91482778 7.21845993 6.46113217 6.0625 9.3125 C5.5365625 10.1478125 5.5365625 10.1478125 5 11 C3.76302083 9.47005208 2.52604167 7.94010417 1.2890625 6.41015625 C0.0333609 4.86733563 0.0333609 4.86733563 -2 4 C-2 3.34 -2 2.68 -2 2 C-1.34 2 -0.68 2 0 2 C0 1.34 0 0.68 0 0 Z " fill="#D32221" transform="translate(37,7)"/>
<path d="M0 0 C12.66970387 -0.18451025 12.66970387 -0.18451025 18 1 C18 1.99 18 2.98 18 4 C16.1875 4.625 16.1875 4.625 14 5 C13.01 4.34 12.02 3.68 11 3 C11 2.34 11 1.68 11 1 C7.37 1 3.74 1 0 1 C0 0.67 0 0.34 0 0 Z " fill="#F44842" transform="translate(19,5)"/>
<path d="M0 0 C0.94875 0.61875 1.8975 1.2375 2.875 1.875 C7.33126858 4.45542657 11.95991248 5.22928239 17 6 C17 6.33 17 6.66 17 7 C10.01370081 7.50604984 5.79799884 7.0333905 0 3 C0 2.01 0 1.02 0 0 Z " fill="#F8353C" transform="translate(12,38)"/>
<path d="M0 0 C3.625 -0.1875 3.625 -0.1875 7 0 C7.33 0.99 7.66 1.98 8 3 C7.34 3 6.68 3 6 3 C5.67 3.66 5.34 4.32 5 5 C5 4.01 5 3.02 5 2 C2.69 2.33 0.38 2.66 -2 3 C-1.34 2.01 -0.68 1.02 0 0 Z " fill="#C0BBC8" transform="translate(37,2)"/>
<path d="M0 0 C-1.5830577 4.2742558 -4.50568404 6.26531794 -8 9 C-8 6 -8 6 -6.7578125 4.39453125 C-5.94957031 3.61142578 -5.94957031 3.61142578 -5.125 2.8125 C-4.59132813 2.28269531 -4.05765625 1.75289062 -3.5078125 1.20703125 C-2 0 -2 0 0 0 Z " fill="#595C64" transform="translate(35,15)"/>
<path d="M0 0 C1.67542976 0.28604898 3.34385343 0.61781233 5 1 C5 1.99 5 2.98 5 4 C3.02 4 1.04 4 -1 4 C-1 1 -1 1 0 0 Z " fill="#8D878D" transform="translate(23,0)"/>
<path d="M0 0 C-0.375 2.9375 -0.375 2.9375 -1 6 C-1.99 6.495 -1.99 6.495 -3 7 C-5 4 -5 4 -5 1 C-2 0 -2 0 0 0 Z " fill="#7D6267" transform="translate(48,8)"/>
<path d="M0 0 C0.33 0 0.66 0 1 0 C1.61538462 7.26153846 1.61538462 7.26153846 -1.5 11 C-2.325 11.66 -3.15 12.32 -4 13 C-4 11.68 -4 10.36 -4 9 C-3.525625 8.54625 -3.05125 8.0925 -2.5625 7.625 C-0.34479581 5.31858764 -0.34504605 3.10541441 0 0 Z " fill="#DE2525" transform="translate(44,27)"/>
<path d="M0 0 C0.66 0.33 1.32 0.66 2 1 C0.549046 4.82524236 -1.38181932 6.19090966 -5 8 C-5.66 8 -6.32 8 -7 8 C-7 7.34 -7 6.68 -7 6 C-5.46875 4.4921875 -5.46875 4.4921875 -3.5 2.875 C-2.8503125 2.33617187 -2.200625 1.79734375 -1.53125 1.2421875 C-1.0259375 0.83226562 -0.520625 0.42234375 0 0 Z " fill="#573F3F" transform="translate(10,6)"/>
<path d="M0 0 C1.98 0 3.96 0 6 0 C6.33 0.66 6.66 1.32 7 2 C4.01758453 2.77321882 1.02419525 3.41196203 -2 4 C-1.34 2.68 -0.68 1.36 0 0 Z " fill="#E8EBF1" transform="translate(6,2)"/>
<path d="M0 0 C2 2 2 2 2 6 C0.68 6 -0.64 6 -2 6 C-2.33 5.01 -2.66 4.02 -3 3 C-2.01 2.01 -1.02 1.02 0 0 Z " fill="#595B63" transform="translate(40,40)"/>
<path d="M0 0 C0.66 0.33 1.32 0.66 2 1 C1.23883449 2.15227823 0.46567307 3.2966386 -0.3125 4.4375 C-0.74175781 5.07558594 -1.17101562 5.71367187 -1.61328125 6.37109375 C-3 8 -3 8 -6 9 C-4.68775452 5.06326356 -3.08089673 2.77280706 0 0 Z " fill="#DCCBD0" transform="translate(14,10)"/>
<path d="M0 0 C1.98 0 3.96 0 6 0 C4.3545622 1.68762851 2.68711423 3.3540349 1 5 C0.67 5 0.34 5 0 5 C0 3.35 0 1.7 0 0 Z " fill="#AAADB1" transform="translate(2,8)"/>
<path d="M0 0 C1 2 1 2 0.1875 4.5625 C-1 7 -1 7 -3 8 C-2.74438677 5.6568787 -2.40729228 3.32156597 -2 1 C-1.34 0.67 -0.68 0.34 0 0 Z " fill="#FD554B" transform="translate(6,16)"/>
<path d="M0 0 C0 1.65 0 3.3 0 5 C-0.99 5.33 -1.98 5.66 -3 6 C-3.66 4.35 -4.32 2.7 -5 1 C-2 0 -2 0 0 0 Z " fill="#7E7B83" transform="translate(42,4)"/>
<path d="M0 0 C3.3 0 6.6 0 10 0 C10 0.33 10 0.66 10 1 C6.7 1 3.4 1 0 1 C0 0.67 0 0.34 0 0 Z " fill="#D01F1E" transform="translate(20,48)"/>
<path d="M0 0 C0.33 0 0.66 0 1 0 C1 3.3 1 6.6 1 10 C0.67 10 0.34 10 0 10 C0 6.7 0 3.4 0 0 Z " fill="#F6362E" transform="translate(1,20)"/>
<path d="M0 0 C0.33 0 0.66 0 1 0 C1 2.64 1 5.28 1 8 C0.67 8 0.34 8 0 8 C0 5.36 0 2.72 0 0 Z " fill="#D72526" transform="translate(48,21)"/>
<path d="M0 0 C0.33 0 0.66 0 1 0 C1 1.98 1 3.96 1 6 C0.67 6 0.34 6 0 6 C0 4.02 0 2.04 0 0 Z " fill="#818592" transform="translate(49,6)"/>
<path d="M0 0 C0.33 0 0.66 0 1 0 C1 1.98 1 3.96 1 6 C0.67 6 0.34 6 0 6 C0 4.02 0 2.04 0 0 Z " fill="#B7B9BB" transform="translate(0,6)"/>
<path d="M0 0 C1.98 0 3.96 0 6 0 C6 0.33 6 0.66 6 1 C4.02 1 2.04 1 0 1 C0 0.67 0 0.34 0 0 Z " fill="#BEC7D7" transform="translate(38,0)"/>
<path d="M0 0 C1.98 0 3.96 0 6 0 C6 0.33 6 0.66 6 1 C4.02 1 2.04 1 0 1 C0 0.67 0 0.34 0 0 Z " fill="#EFF2F8" transform="translate(6,0)"/>
<path d="M0 0 C4 1 4 1 4 1 Z " fill="#48474C" transform="translate(38,47)"/>
<path d="M0 0 C4 1 4 1 4 1 Z " fill="#424144" transform="translate(8,47)"/>
<path d="M0 0 C1 4 1 4 1 4 Z " fill="#626776" transform="translate(43,42)"/>
<path d="M0 0 C1 4 1 4 1 4 Z " fill="#7C7D80" transform="translate(6,42)"/>
<path d="M0 0 C3 1 3 1 3 1 Z " fill="#E11719" transform="translate(30,47)"/>
<path d="" fill="#D72221" transform="translate(0,0)"/>
<path d="" fill="#FE534A" transform="translate(0,0)"/>
<path d="" fill="#CDD2DA" transform="translate(0,0)"/>
<path d="M0 0 C3 1 3 1 3 1 Z " fill="#F3AFA5" transform="translate(17,2)"/>
<path d="M0 0 C3 1 3 1 3 1 Z " fill="#344465" transform="translate(44,1)"/>
<path d="M0 0 C2 1 2 1 2 1 Z " fill="#CE1A19" transform="translate(17,47)"/>
<path d="M0 0 C2 1 2 1 2 1 Z " fill="#E01A1C" transform="translate(33,46)"/>
<path d="M0 0 C2 1 2 1 2 1 Z " fill="#C82123" transform="translate(35,45)"/>
<path d="" fill="#835B6A" transform="translate(0,0)"/>
<path d="" fill="#B07173" transform="translate(0,0)"/>
<path d="" fill="#D62221" transform="translate(0,0)"/>
<path d="" fill="#D62120" transform="translate(0,0)"/>
<path d="" fill="#D72120" transform="translate(0,0)"/>
<path d="" fill="#E11A17" transform="translate(0,0)"/>
<path d="" fill="#E22D34" transform="translate(0,0)"/>
<path d="" fill="#CF424A" transform="translate(0,0)"/>
<path d="" fill="#E24B3D" transform="translate(0,0)"/>
<path d="M0 0 C2 1 2 1 2 1 Z " fill="#F67F83" transform="translate(33,3)"/>
<path d="M0 0 C2 1 2 1 2 1 Z " fill="#F2B0A8" transform="translate(15,3)"/>
<path d="M0 0 C2 1 2 1 2 1 Z " fill="#DB6364" transform="translate(30,2)"/>
<path d="M0 0 C2 1 2 1 2 1 Z " fill="#A5A5B3" transform="translate(12,1)"/>
<path d="" fill="#53504E" transform="translate(0,0)"/>
<path d="" fill="#544A46" transform="translate(0,0)"/>
<path d="" fill="#C91A19" transform="translate(0,0)"/>
<path d="" fill="#4D4340" transform="translate(0,0)"/>
<path d="" fill="#49423D" transform="translate(0,0)"/>
<path d="" fill="#93302D" transform="translate(0,0)"/>
<path d="" fill="#C71F1D" transform="translate(0,0)"/>
<path d="" fill="#D42322" transform="translate(0,0)"/>
<path d="" fill="#DB0A0A" transform="translate(0,0)"/>
<path d="" fill="#D11A18" transform="translate(0,0)"/>
<path d="" fill="#D81716" transform="translate(0,0)"/>
<path d="" fill="#7A6961" transform="translate(0,0)"/>
<path d="" fill="#77645C" transform="translate(0,0)"/>
<path d="" fill="#7C6A5F" transform="translate(0,0)"/>
<path d="" fill="#78645B" transform="translate(0,0)"/>
<path d="" fill="#4A566B" transform="translate(0,0)"/>
<path d="" fill="#D4D2D5" transform="translate(0,0)"/>
<path d="" fill="#B9B3BD" transform="translate(0,0)"/>
<path d="" fill="#D8D7DB" transform="translate(0,0)"/>
<path d="" fill="#DED1D5" transform="translate(0,0)"/>
<path d="" fill="#A1ABB4" transform="translate(0,0)"/>
</svg>
