<?xml version="1.0" encoding="UTF-8"?>
<svg version="1.1" viewBox="0 0 1024 1024" width="1280" height="1280" xmlns="http://www.w3.org/2000/svg">
<path transform="translate(493,1)" d="m0 0h31l33 2 31 4 29 5 36 9 36 12 25 10 24 11 30 16 19 12 15 10 15 11 13 10 13 11 14 12 13 13 6 5 7 8 7 7 7 8 11 13 10 13 14 19 11 17 11 18 12 22 15 31 11 28 10 30 9 35 6 34 3 23 2 27v52l-3 33-6 38-5 23-7 26-10 30-12 29-12 25-10 19-10 17-16 24-10 14-11 14-11 13-9 10-7 8-26 26-8 7-14 12-17 13-15 11-15 10-18 11-16 9-23 12-27 12-30 11-26 8-28 7-34 6-33 4-14 1h-51l-34-3-35-5-28-6-32-9-29-10-26-11-25-12-19-10-23-14-19-13-16-12-14-11-10-9-8-7-10-9-25-25-7-8-12-14-13-17-11-15-10-15-15-25-14-26-11-24-10-26-12-36-6-24-6-30-5-39-1-15v-60l3-32 5-33 7-31 8-28 10-29 11-26 14-29 13-23 15-23 13-19 12-15 9-11 12-14 16-17 12-12 8-7 10-9 11-9 18-14 20-14 19-12 17-10 29-15 20-9 23-9 33-11 32-8 39-7 35-4zm-9 129-28 3-23 4-28 7-27 9-26 11-16 8-17 9-19 12-17 12-16 13-14 12-8 7v2l-4 2v2l-4 2-7 8-10 11-8 10-15 20-14 22-12 22-11 23-10 26-8 26-6 27-5 33-1 13v52l3 28 4 23 6 25 8 26 13 32 13 26 12 20 11 16 13 17 12 14 11 12 18 18 11 9 9 8 19 14 17 11 17 10 21 11 31 13 31 10 26 6 31 5 21 2h46l22-2 26-4 27-6 27-8 33-13 28-14 20-12 19-13 17-13 15-13 13-12 11-11v-2h2l9-11 9-10 14-19 11-17 7-11 14-28 9-20 9-25 7-24 6-29 4-30 1-15v-41l-3-31-5-29-7-28-11-32-12-27-12-23-10-16-8-12-14-19-12-14-9-10-10-11-8-7-13-12-14-11-19-14-19-12-22-12-25-12-24-9-26-8-31-7-29-4-12-1z" fill="#E74400"/>
<path transform="translate(449,259)" d="m0 0h99l28 1 1 231 39 39 8 7 14 13 8 7 11 10 8 7 2 2-1 4-8 7-8 9-6 5-3 4h-2l-2 4-28 28h-2l-2 4h-2l-2 4h-2l-1 3-6 5-6 7-4 4h-2l-2 4-2 1-5-4-9-11-15-16-7-8-12-13-62-62-11-9-7-6v-280z" fill="#E74401"/>
</svg>
